solid OpenSCAD_Model
  facet normal 0 0 1
    outer loop
      vertex -0.001 5.001 6
      vertex 4.001 0 6
      vertex 4.001 5.001 6
    endloop
  endfacet
  facet normal 0 0 1
    outer loop
      vertex 4.001 0 6
      vertex -0.001 5.001 6
      vertex -0.001 0 6
    endloop
  endfacet
  facet normal 0 0 -1
    outer loop
      vertex -0.001 0 0
      vertex 4.001 5.001 0
      vertex 4.001 0 0
    endloop
  endfacet
  facet normal 0 0 -1
    outer loop
      vertex 4.001 5.001 0
      vertex -0.001 0 0
      vertex -0.001 5.001 0
    endloop
  endfacet
  facet normal 0 -1 0
    outer loop
      vertex -0.001 0 0
      vertex 4.001 0 6
      vertex -0.001 0 6
    endloop
  endfacet
  facet normal 0 -1 0
    outer loop
      vertex 4.001 0 6
      vertex -0.001 0 0
      vertex 4.001 0 0
    endloop
  endfacet
  facet normal 1 0 0
    outer loop
      vertex 4.001 0 6
      vertex 4.001 5.001 0
      vertex 4.001 5.001 6
    endloop
  endfacet
  facet normal 1 0 0
    outer loop
      vertex 4.001 5.001 0
      vertex 4.001 0 6
      vertex 4.001 0 0
    endloop
  endfacet
  facet normal 0 1 0
    outer loop
      vertex 4.001 5.001 0
      vertex -0.001 5.001 6
      vertex 4.001 5.001 6
    endloop
  endfacet
  facet normal 0 1 0
    outer loop
      vertex -0.001 5.001 6
      vertex 4.001 5.001 0
      vertex -0.001 5.001 0
    endloop
  endfacet
  facet normal -1 0 0
    outer loop
      vertex -0.001 0 0
      vertex -0.001 5.001 6
      vertex -0.001 5.001 0
    endloop
  endfacet
  facet normal -1 0 0
    outer loop
      vertex -0.001 5.001 6
      vertex -0.001 0 0
      vertex -0.001 0 6
    endloop
  endfacet
endsolid OpenSCAD_Model
