solid OpenSCAD_Model
  facet normal -0.6234898018587334 -0.7818314824680299 0
    outer loop
      vertex -0.44504186791262795 -1.9498558243636475 1
      vertex -1.801937735804838 -0.8677674782351165 0
      vertex -0.44504186791262795 -1.9498558243636475 0
    endloop
  endfacet
  facet normal 0.22252093395631456 -0.9749279121818236 0
    outer loop
      vertex 1.2469796037174667 -1.5636629649360598 1
      vertex -0.44504186791262795 -1.9498558243636475 0
      vertex 1.2469796037174667 -1.5636629649360598 0
    endloop
  endfacet
  facet normal 0.900968867902419 -0.4338837391175582 0
    outer loop
      vertex 2 0 0
      vertex 1.2469796037174667 -1.5636629649360598 1
      vertex 1.2469796037174667 -1.5636629649360598 0
    endloop
  endfacet
  facet normal 0 0 -1
    outer loop
      vertex -1.801937735804838 -0.8677674782351165 0
      vertex -0.44504186791262895 1.9498558243636472 0
      vertex -0.44504186791262795 -1.9498558243636475 0
    endloop
  endfacet
  facet normal 0 0 -1
    outer loop
      vertex -0.44504186791262795 -1.9498558243636475 0
      vertex 1.246979603717467 1.5636629649360596 0
      vertex 1.2469796037174667 -1.5636629649360598 0
    endloop
  endfacet
  facet normal 0.22252093395631456 -0.9749279121818236 0
    outer loop
      vertex -0.44504186791262795 -1.9498558243636475 0
      vertex 1.2469796037174667 -1.5636629649360598 1
      vertex -0.44504186791262795 -1.9498558243636475 1
    endloop
  endfacet
  facet normal -0.6234898018587334 -0.7818314824680299 0
    outer loop
      vertex -1.801937735804838 -0.8677674782351165 0
      vertex -0.44504186791262795 -1.9498558243636475 1
      vertex -1.801937735804838 -0.8677674782351165 1
    endloop
  endfacet
  facet normal -1 0 0
    outer loop
      vertex -1.801937735804838 0.8677674782351165 1
      vertex -1.801937735804838 -0.8677674782351165 0
      vertex -1.801937735804838 -0.8677674782351165 1
    endloop
  endfacet
  facet normal 0.900968867902419 -0.4338837391175582 0
    outer loop
      vertex 1.2469796037174667 -1.5636629649360598 1
      vertex 2 0 0
      vertex 2 0 1
    endloop
  endfacet
  facet normal 0 0 1
    outer loop
      vertex -0.44504186791262795 -1.9498558243636475 1
      vertex -1.801937735804838 0.8677674782351165 1
      vertex -1.801937735804838 -0.8677674782351165 1
    endloop
  endfacet
  facet normal 0 0 1
    outer loop
      vertex -0.44504186791262895 1.9498558243636472 1
      vertex -0.44504186791262795 -1.9498558243636475 1
      vertex 1.2469796037174667 -1.5636629649360598 1
    endloop
  endfacet
  facet normal 0 0 -1
    outer loop
      vertex -0.44504186791262895 1.9498558243636472 0
      vertex -1.801937735804838 -0.8677674782351165 0
      vertex -1.801937735804838 0.8677674782351165 0
    endloop
  endfacet
  facet normal 0 0 -1
    outer loop
      vertex -0.44504186791262795 -1.9498558243636475 0
      vertex -0.44504186791262895 1.9498558243636472 0
      vertex 1.246979603717467 1.5636629649360596 0
    endloop
  endfacet
  facet normal 0 0 -1
    outer loop
      vertex 1.2469796037174667 -1.5636629649360598 0
      vertex 1.246979603717467 1.5636629649360596 0
      vertex 2 0 0
    endloop
  endfacet
  facet normal -1 0 0
    outer loop
      vertex -1.801937735804838 -0.8677674782351165 0
      vertex -1.801937735804838 0.8677674782351165 1
      vertex -1.801937735804838 0.8677674782351165 0
    endloop
  endfacet
  facet normal 0.9009688679024191 0.4338837391175582 0
    outer loop
      vertex 1.246979603717467 1.5636629649360596 0
      vertex 2 0 1
      vertex 2 0 0
    endloop
  endfacet
  facet normal -0.6234898018587336 0.7818314824680298 0
    outer loop
      vertex -1.801937735804838 0.8677674782351165 1
      vertex -0.44504186791262895 1.9498558243636472 0
      vertex -1.801937735804838 0.8677674782351165 0
    endloop
  endfacet
  facet normal 0.22252093395631442 0.9749279121818236 0
    outer loop
      vertex -0.44504186791262895 1.9498558243636472 1
      vertex 1.246979603717467 1.5636629649360596 0
      vertex -0.44504186791262895 1.9498558243636472 0
    endloop
  endfacet
  facet normal 0 0 1
    outer loop
      vertex -1.801937735804838 0.8677674782351165 1
      vertex -0.44504186791262795 -1.9498558243636475 1
      vertex -0.44504186791262895 1.9498558243636472 1
    endloop
  endfacet
  facet normal 0 0 1
    outer loop
      vertex 1.246979603717467 1.5636629649360596 1
      vertex 1.2469796037174667 -1.5636629649360598 1
      vertex 2 0 1
    endloop
  endfacet
  facet normal 0 0 1
    outer loop
      vertex -0.44504186791262895 1.9498558243636472 1
      vertex 1.2469796037174667 -1.5636629649360598 1
      vertex 1.246979603717467 1.5636629649360596 1
    endloop
  endfacet
  facet normal -0.6234898018587336 0.7818314824680298 0
    outer loop
      vertex -0.44504186791262895 1.9498558243636472 0
      vertex -1.801937735804838 0.8677674782351165 1
      vertex -0.44504186791262895 1.9498558243636472 1
    endloop
  endfacet
  facet normal 0.9009688679024191 0.4338837391175582 0
    outer loop
      vertex 2 0 1
      vertex 1.246979603717467 1.5636629649360596 0
      vertex 1.246979603717467 1.5636629649360596 1
    endloop
  endfacet
  facet normal 0.22252093395631442 0.9749279121818236 0
    outer loop
      vertex 1.246979603717467 1.5636629649360596 0
      vertex -0.44504186791262895 1.9498558243636472 1
      vertex 1.246979603717467 1.5636629649360596 1
    endloop
  endfacet
  facet normal -0.5680647467311556 -0.8229838658936565 0
    outer loop
      vertex 5.290790225914929 -1.8700324853708297 1
      vertex 4.502978503657798 -1.3262453164815906 0
      vertex 5.290790225914929 -1.8700324853708297 0
    endloop
  endfacet
  facet normal -0.12053668025532333 -0.992708874098054 0
    outer loop
      vertex 6.241073360510645 -1.9854177481961082 1
      vertex 5.290790225914929 -1.8700324853708297 0
      vertex 6.241073360510645 -1.9854177481961082 0
    endloop
  endfacet
  facet normal 0 0 -1
    outer loop
      vertex 5.290790225914929 -1.8700324853708297 0
      vertex 6.241073360510646 1.985417748196108 0
      vertex 6.241073360510645 -1.9854177481961082 0
    endloop
  endfacet
  facet normal 0 0 -1
    outer loop
      vertex 4.502978503657798 -1.3262453164815906 0
      vertex 5.290790225914929 1.8700324853708297 0
      vertex 5.290790225914929 -1.8700324853708297 0
    endloop
  endfacet
  facet normal 0 0 -1
    outer loop
      vertex 4.058116365147896 -0.47863132857511526 0
      vertex 4.502978503657798 1.3262453164815906 0
      vertex 4.502978503657798 -1.3262453164815906 0
    endloop
  endfacet
  facet normal -0.88545602565321 -0.46472317204376834 0
    outer loop
      vertex 4.502978503657798 -1.3262453164815906 0
      vertex 4.058116365147896 -0.47863132857511526 1
      vertex 4.058116365147896 -0.47863132857511526 0
    endloop
  endfacet
  facet normal -0.5680647467311556 -0.8229838658936565 0
    outer loop
      vertex 4.502978503657798 -1.3262453164815906 0
      vertex 5.290790225914929 -1.8700324853708297 1
      vertex 4.502978503657798 -1.3262453164815906 1
    endloop
  endfacet
  facet normal -0.12053668025532333 -0.992708874098054 0
    outer loop
      vertex 5.290790225914929 -1.8700324853708297 0
      vertex 6.241073360510645 -1.9854177481961082 1
      vertex 5.290790225914929 -1.8700324853708297 1
    endloop
  endfacet
  facet normal -0.88545602565321 -0.46472317204376834 0
    outer loop
      vertex 4.058116365147896 -0.47863132857511526 1
      vertex 4.502978503657798 -1.3262453164815906 0
      vertex 4.502978503657798 -1.3262453164815906 1
    endloop
  endfacet
  facet normal -1 0 0
    outer loop
      vertex 4.058116365147896 0.47863132857511526 1
      vertex 4.058116365147896 -0.47863132857511526 0
      vertex 4.058116365147896 -0.47863132857511526 1
    endloop
  endfacet
  facet normal 0 0 1
    outer loop
      vertex 4.502978503657798 1.3262453164815906 1
      vertex 4.502978503657798 -1.3262453164815906 1
      vertex 5.290790225914929 -1.8700324853708297 1
    endloop
  endfacet
  facet normal 0 0 1
    outer loop
      vertex 5.290790225914929 1.8700324853708297 1
      vertex 5.290790225914929 -1.8700324853708297 1
      vertex 6.241073360510645 -1.9854177481961082 1
    endloop
  endfacet
  facet normal 0 0 1
    outer loop
      vertex 4.502978503657798 -1.3262453164815906 1
      vertex 4.058116365147896 0.47863132857511526 1
      vertex 4.058116365147896 -0.47863132857511526 1
    endloop
  endfacet
  facet normal 0 0 -1
    outer loop
      vertex 4.502978503657798 1.3262453164815906 0
      vertex 4.058116365147896 -0.47863132857511526 0
      vertex 4.058116365147896 0.47863132857511526 0
    endloop
  endfacet
  facet normal 0 0 -1
    outer loop
      vertex 4.502978503657798 -1.3262453164815906 0
      vertex 4.502978503657798 1.3262453164815906 0
      vertex 5.290790225914929 1.8700324853708297 0
    endloop
  endfacet
  facet normal 0 0 -1
    outer loop
      vertex 5.290790225914929 -1.8700324853708297 0
      vertex 5.290790225914929 1.8700324853708297 0
      vertex 6.241073360510646 1.985417748196108 0
    endloop
  endfacet
  facet normal -1 0 0
    outer loop
      vertex 4.058116365147896 -0.47863132857511526 0
      vertex 4.058116365147896 0.47863132857511526 1
      vertex 4.058116365147896 0.47863132857511526 0
    endloop
  endfacet
  facet normal -0.88545602565321 0.46472317204376834 0
    outer loop
      vertex 4.058116365147896 0.47863132857511526 0
      vertex 4.502978503657798 1.3262453164815906 1
      vertex 4.502978503657798 1.3262453164815906 0
    endloop
  endfacet
  facet normal -0.5680647467311556 0.8229838658936565 0
    outer loop
      vertex 4.502978503657798 1.3262453164815906 1
      vertex 5.290790225914929 1.8700324853708297 0
      vertex 4.502978503657798 1.3262453164815906 0
    endloop
  endfacet
  facet normal -0.12053668025532298 0.992708874098054 0
    outer loop
      vertex 5.290790225914929 1.8700324853708297 1
      vertex 6.241073360510646 1.985417748196108 0
      vertex 5.290790225914929 1.8700324853708297 0
    endloop
  endfacet
  facet normal -0.88545602565321 0.46472317204376834 0
    outer loop
      vertex 4.502978503657798 1.3262453164815906 1
      vertex 4.058116365147896 0.47863132857511526 0
      vertex 4.058116365147896 0.47863132857511526 1
    endloop
  endfacet
  facet normal 0 0 1
    outer loop
      vertex 4.058116365147896 0.47863132857511526 1
      vertex 4.502978503657798 -1.3262453164815906 1
      vertex 4.502978503657798 1.3262453164815906 1
    endloop
  endfacet
  facet normal 0 0 1
    outer loop
      vertex 4.502978503657798 1.3262453164815906 1
      vertex 5.290790225914929 -1.8700324853708297 1
      vertex 5.290790225914929 1.8700324853708297 1
    endloop
  endfacet
  facet normal 0 0 1
    outer loop
      vertex 5.290790225914929 1.8700324853708297 1
      vertex 6.241073360510645 -1.9854177481961082 1
      vertex 6.241073360510646 1.985417748196108 1
    endloop
  endfacet
  facet normal -0.5680647467311556 0.8229838658936565 0
    outer loop
      vertex 5.290790225914929 1.8700324853708297 0
      vertex 4.502978503657798 1.3262453164815906 1
      vertex 5.290790225914929 1.8700324853708297 1
    endloop
  endfacet
  facet normal -0.12053668025532298 0.992708874098054 0
    outer loop
      vertex 6.241073360510646 1.985417748196108 0
      vertex 5.290790225914929 1.8700324853708297 1
      vertex 6.241073360510646 1.985417748196108 1
    endloop
  endfacet
  facet normal 0.3546048870425358 -0.9350162426854147 0
    outer loop
      vertex 7.136129493462312 -1.6459677317873123 1
      vertex 6.241073360510645 -1.9854177481961082 0
      vertex 7.136129493462312 -1.6459677317873123 0
    endloop
  endfacet
  facet normal 0.7485107481711015 -0.6631226582407947 0
    outer loop
      vertex 7.77091205130642 -0.9294463440875367 0
      vertex 7.136129493462312 -1.6459677317873123 1
      vertex 7.136129493462312 -1.6459677317873123 0
    endloop
  endfacet
  facet normal 0 0 -1
    outer loop
      vertex 6.241073360510645 -1.9854177481961082 0
      vertex 7.136129493462311 1.645967731787313 0
      vertex 7.136129493462312 -1.6459677317873123 0
    endloop
  endfacet
  facet normal 0 0 -1
    outer loop
      vertex 7.136129493462312 -1.6459677317873123 0
      vertex 7.77091205130642 0.9294463440875371 0
      vertex 7.77091205130642 -0.9294463440875367 0
    endloop
  endfacet
  facet normal 0.9709418174260519 -0.23931566428755804 0
    outer loop
      vertex 8 0 0
      vertex 7.77091205130642 -0.9294463440875367 1
      vertex 7.77091205130642 -0.9294463440875367 0
    endloop
  endfacet
  facet normal 0.3546048870425358 -0.9350162426854147 0
    outer loop
      vertex 6.241073360510645 -1.9854177481961082 0
      vertex 7.136129493462312 -1.6459677317873123 1
      vertex 6.241073360510645 -1.9854177481961082 1
    endloop
  endfacet
  facet normal 0.7485107481711015 -0.6631226582407947 0
    outer loop
      vertex 7.136129493462312 -1.6459677317873123 1
      vertex 7.77091205130642 -0.9294463440875367 0
      vertex 7.77091205130642 -0.9294463440875367 1
    endloop
  endfacet
  facet normal 0.9709418174260519 -0.23931566428755804 0
    outer loop
      vertex 7.77091205130642 -0.9294463440875367 1
      vertex 8 0 0
      vertex 8 0 1
    endloop
  endfacet
  facet normal 0 0 1
    outer loop
      vertex 6.241073360510646 1.985417748196108 1
      vertex 6.241073360510645 -1.9854177481961082 1
      vertex 7.136129493462312 -1.6459677317873123 1
    endloop
  endfacet
  facet normal 0 0 1
    outer loop
      vertex 7.136129493462311 1.645967731787313 1
      vertex 7.136129493462312 -1.6459677317873123 1
      vertex 7.77091205130642 -0.9294463440875367 1
    endloop
  endfacet
  facet normal 0 0 -1
    outer loop
      vertex 7.77091205130642 -0.9294463440875367 0
      vertex 7.77091205130642 0.9294463440875371 0
      vertex 8 0 0
    endloop
  endfacet
  facet normal 0 0 -1
    outer loop
      vertex 7.136129493462312 -1.6459677317873123 0
      vertex 7.136129493462311 1.645967731787313 0
      vertex 7.77091205130642 0.9294463440875371 0
    endloop
  endfacet
  facet normal 0 0 -1
    outer loop
      vertex 6.241073360510645 -1.9854177481961082 0
      vertex 6.241073360510646 1.985417748196108 0
      vertex 7.136129493462311 1.645967731787313 0
    endloop
  endfacet
  facet normal 0.9709418174260519 0.23931566428755793 0
    outer loop
      vertex 7.77091205130642 0.9294463440875371 0
      vertex 8 0 1
      vertex 8 0 0
    endloop
  endfacet
  facet normal 0.7485107481711011 0.6631226582407952 0
    outer loop
      vertex 7.136129493462311 1.645967731787313 0
      vertex 7.77091205130642 0.9294463440875371 1
      vertex 7.77091205130642 0.9294463440875371 0
    endloop
  endfacet
  facet normal 0.3546048870425356 0.9350162426854148 0
    outer loop
      vertex 6.241073360510646 1.985417748196108 1
      vertex 7.136129493462311 1.645967731787313 0
      vertex 6.241073360510646 1.985417748196108 0
    endloop
  endfacet
  facet normal 0.9709418174260519 0.23931566428755793 0
    outer loop
      vertex 8 0 1
      vertex 7.77091205130642 0.9294463440875371 0
      vertex 7.77091205130642 0.9294463440875371 1
    endloop
  endfacet
  facet normal 0 0 1
    outer loop
      vertex 7.77091205130642 0.9294463440875371 1
      vertex 7.77091205130642 -0.9294463440875367 1
      vertex 8 0 1
    endloop
  endfacet
  facet normal 0 0 1
    outer loop
      vertex 6.241073360510646 1.985417748196108 1
      vertex 7.136129493462312 -1.6459677317873123 1
      vertex 7.136129493462311 1.645967731787313 1
    endloop
  endfacet
  facet normal 0 0 1
    outer loop
      vertex 7.136129493462311 1.645967731787313 1
      vertex 7.77091205130642 -0.9294463440875367 1
      vertex 7.77091205130642 0.9294463440875371 1
    endloop
  endfacet
  facet normal 0.7485107481711011 0.6631226582407952 0
    outer loop
      vertex 7.77091205130642 0.9294463440875371 1
      vertex 7.136129493462311 1.645967731787313 0
      vertex 7.136129493462311 1.645967731787313 1
    endloop
  endfacet
  facet normal 0.3546048870425356 0.9350162426854148 0
    outer loop
      vertex 7.136129493462311 1.645967731787313 0
      vertex 6.241073360510646 1.985417748196108 1
      vertex 7.136129493462311 1.645967731787313 1
    endloop
  endfacet
  facet normal -0.9927088740980541 -0.12053668025532319 0
    outer loop
      vertex 10.058116365147896 -0.47863132857511526 0
      vertex 10 0 1
      vertex 10 0 0
    endloop
  endfacet
  facet normal -0.6631226582407959 -0.7485107481711005 0
    outer loop
      vertex 10.863870506537689 -1.645967731787313 1
      vertex 10.502978503657799 -1.3262453164815906 0
      vertex 10.863870506537689 -1.645967731787313 0
    endloop
  endfacet
  facet normal -0.46472317204376845 -0.88545602565321 0
    outer loop
      vertex 11.290790225914929 -1.8700324853708297 1
      vertex 10.863870506537689 -1.645967731787313 0
      vertex 11.290790225914929 -1.8700324853708297 0
    endloop
  endfacet
  facet normal -0.23931566428755782 -0.970941817426052 0
    outer loop
      vertex 11.758926639489355 -1.9854177481961082 1
      vertex 11.290790225914929 -1.8700324853708297 0
      vertex 11.758926639489355 -1.9854177481961082 0
    endloop
  endfacet
  facet normal -0.8229838658936561 -0.5680647467311563 0
    outer loop
      vertex 10.502978503657799 -1.3262453164815906 0
      vertex 10.22908794869358 -0.9294463440875367 1
      vertex 10.22908794869358 -0.9294463440875367 0
    endloop
  endfacet
  facet normal 0 -1 0
    outer loop
      vertex 12.241073360510645 -1.9854177481961082 1
      vertex 11.758926639489355 -1.9854177481961082 0
      vertex 12.241073360510645 -1.9854177481961082 0
    endloop
  endfacet
  facet normal 0.23931566428755782 -0.970941817426052 0
    outer loop
      vertex 12.709209774085071 -1.8700324853708297 1
      vertex 12.241073360510645 -1.9854177481961082 0
      vertex 12.709209774085071 -1.8700324853708297 0
    endloop
  endfacet
  facet normal 0.464723172043768 -0.8854560256532101 0
    outer loop
      vertex 13.136129493462313 -1.6459677317873123 1
      vertex 12.709209774085071 -1.8700324853708297 0
      vertex 13.136129493462313 -1.6459677317873123 0
    endloop
  endfacet
  facet normal 0.663122658240797 -0.7485107481710995 0
    outer loop
      vertex 13.497021496342201 -1.3262453164815906 1
      vertex 13.136129493462313 -1.6459677317873123 0
      vertex 13.497021496342201 -1.3262453164815906 0
    endloop
  endfacet
  facet normal 0.8229838658936561 -0.5680647467311563 0
    outer loop
      vertex 13.77091205130642 -0.9294463440875367 0
      vertex 13.497021496342201 -1.3262453164815906 1
      vertex 13.497021496342201 -1.3262453164815906 0
    endloop
  endfacet
  facet normal 0 0 -1
    outer loop
      vertex 10.863870506537689 -1.645967731787313 0
      vertex 11.290790225914929 1.8700324853708297 0
      vertex 11.290790225914929 -1.8700324853708297 0
    endloop
  endfacet
  facet normal 0 0 -1
    outer loop
      vertex 11.290790225914929 -1.8700324853708297 0
      vertex 11.758926639489355 1.985417748196108 0
      vertex 11.758926639489355 -1.9854177481961082 0
    endloop
  endfacet
  facet normal 0 0 -1
    outer loop
      vertex 10.22908794869358 -0.9294463440875367 0
      vertex 10.502978503657799 1.3262453164815906 0
      vertex 10.502978503657799 -1.3262453164815906 0
    endloop
  endfacet
  facet normal 0 0 -1
    outer loop
      vertex 10.502978503657799 -1.3262453164815906 0
      vertex 10.863870506537689 1.645967731787313 0
      vertex 10.863870506537689 -1.645967731787313 0
    endloop
  endfacet
  facet normal 0 0 -1
    outer loop
      vertex 10.058116365147896 -0.47863132857511526 0
      vertex 10.22908794869358 0.9294463440875367 0
      vertex 10.22908794869358 -0.9294463440875367 0
    endloop
  endfacet
  facet normal 0 0 -1
    outer loop
      vertex 11.758926639489355 -1.9854177481961082 0
      vertex 12.241073360510645 1.985417748196108 0
      vertex 12.241073360510645 -1.9854177481961082 0
    endloop
  endfacet
  facet normal 0 0 -1
    outer loop
      vertex 12.241073360510645 -1.9854177481961082 0
      vertex 12.709209774085071 1.8700324853708297 0
      vertex 12.709209774085071 -1.8700324853708297 0
    endloop
  endfacet
  facet normal 0 0 -1
    outer loop
      vertex 12.709209774085071 -1.8700324853708297 0
      vertex 13.136129493462311 1.645967731787313 0
      vertex 13.136129493462313 -1.6459677317873123 0
    endloop
  endfacet
  facet normal 0 0 -1
    outer loop
      vertex 13.136129493462313 -1.6459677317873123 0
      vertex 13.497021496342203 1.3262453164815904 0
      vertex 13.497021496342201 -1.3262453164815906 0
    endloop
  endfacet
  facet normal 0 0 -1
    outer loop
      vertex 13.497021496342201 -1.3262453164815906 0
      vertex 13.77091205130642 0.9294463440875371 0
      vertex 13.77091205130642 -0.9294463440875367 0
    endloop
  endfacet
  facet normal 0 0 -1
    outer loop
      vertex 13.77091205130642 -0.9294463440875367 0
      vertex 13.941883634852104 0.47863132857511553 0
      vertex 13.941883634852104 -0.47863132857511625 0
    endloop
  endfacet
  facet normal 0 0 -1
    outer loop
      vertex 13.941883634852104 -0.47863132857511625 0
      vertex 13.941883634852104 0.47863132857511553 0
      vertex 14 0 0
    endloop
  endfacet
  facet normal -0.9350162426854146 -0.35460488704253595 0
    outer loop
      vertex 10.22908794869358 -0.9294463440875367 0
      vertex 10.058116365147896 -0.47863132857511526 1
      vertex 10.058116365147896 -0.47863132857511526 0
    endloop
  endfacet
  facet normal 0.9350162426854145 -0.35460488704253673 0
    outer loop
      vertex 13.941883634852104 -0.47863132857511625 0
      vertex 13.77091205130642 -0.9294463440875367 1
      vertex 13.77091205130642 -0.9294463440875367 0
    endloop
  endfacet
  facet normal 0.992708874098054 -0.12053668025532292 0
    outer loop
      vertex 14 0 0
      vertex 13.941883634852104 -0.47863132857511625 1
      vertex 13.941883634852104 -0.47863132857511625 0
    endloop
  endfacet
  facet normal -0.9927088740980541 -0.12053668025532319 0
    outer loop
      vertex 10 0 1
      vertex 10.058116365147896 -0.47863132857511526 0
      vertex 10.058116365147896 -0.47863132857511526 1
    endloop
  endfacet
  facet normal -0.46472317204376845 -0.88545602565321 0
    outer loop
      vertex 10.863870506537689 -1.645967731787313 0
      vertex 11.290790225914929 -1.8700324853708297 1
      vertex 10.863870506537689 -1.645967731787313 1
    endloop
  endfacet
  facet normal -0.23931566428755782 -0.970941817426052 0
    outer loop
      vertex 11.290790225914929 -1.8700324853708297 0
      vertex 11.758926639489355 -1.9854177481961082 1
      vertex 11.290790225914929 -1.8700324853708297 1
    endloop
  endfacet
  facet normal 0 -1 0
    outer loop
      vertex 11.758926639489355 -1.9854177481961082 0
      vertex 12.241073360510645 -1.9854177481961082 1
      vertex 11.758926639489355 -1.9854177481961082 1
    endloop
  endfacet
  facet normal -0.6631226582407959 -0.7485107481711005 0
    outer loop
      vertex 10.502978503657799 -1.3262453164815906 0
      vertex 10.863870506537689 -1.645967731787313 1
      vertex 10.502978503657799 -1.3262453164815906 1
    endloop
  endfacet
  facet normal -0.8229838658936561 -0.5680647467311563 0
    outer loop
      vertex 10.22908794869358 -0.9294463440875367 1
      vertex 10.502978503657799 -1.3262453164815906 0
      vertex 10.502978503657799 -1.3262453164815906 1
    endloop
  endfacet
  facet normal 0.23931566428755782 -0.970941817426052 0
    outer loop
      vertex 12.241073360510645 -1.9854177481961082 0
      vertex 12.709209774085071 -1.8700324853708297 1
      vertex 12.241073360510645 -1.9854177481961082 1
    endloop
  endfacet
  facet normal 0.464723172043768 -0.8854560256532101 0
    outer loop
      vertex 12.709209774085071 -1.8700324853708297 0
      vertex 13.136129493462313 -1.6459677317873123 1
      vertex 12.709209774085071 -1.8700324853708297 1
    endloop
  endfacet
  facet normal 0.663122658240797 -0.7485107481710995 0
    outer loop
      vertex 13.136129493462313 -1.6459677317873123 0
      vertex 13.497021496342201 -1.3262453164815906 1
      vertex 13.136129493462313 -1.6459677317873123 1
    endloop
  endfacet
  facet normal 0.8229838658936561 -0.5680647467311563 0
    outer loop
      vertex 13.497021496342201 -1.3262453164815906 1
      vertex 13.77091205130642 -0.9294463440875367 0
      vertex 13.77091205130642 -0.9294463440875367 1
    endloop
  endfacet
  facet normal -0.9350162426854146 -0.35460488704253595 0
    outer loop
      vertex 10.058116365147896 -0.47863132857511526 1
      vertex 10.22908794869358 -0.9294463440875367 0
      vertex 10.22908794869358 -0.9294463440875367 1
    endloop
  endfacet
  facet normal 0.9350162426854145 -0.35460488704253673 0
    outer loop
      vertex 13.77091205130642 -0.9294463440875367 1
      vertex 13.941883634852104 -0.47863132857511625 0
      vertex 13.941883634852104 -0.47863132857511625 1
    endloop
  endfacet
  facet normal 0.992708874098054 -0.12053668025532292 0
    outer loop
      vertex 13.941883634852104 -0.47863132857511625 1
      vertex 14 0 0
      vertex 14 0 1
    endloop
  endfacet
  facet normal 0 0 1
    outer loop
      vertex 10.863870506537689 1.645967731787313 1
      vertex 10.863870506537689 -1.645967731787313 1
      vertex 11.290790225914929 -1.8700324853708297 1
    endloop
  endfacet
  facet normal 0 0 1
    outer loop
      vertex 10.502978503657799 1.3262453164815906 1
      vertex 10.502978503657799 -1.3262453164815906 1
      vertex 10.863870506537689 -1.645967731787313 1
    endloop
  endfacet
  facet normal 0 0 1
    outer loop
      vertex 11.290790225914929 1.8700324853708297 1
      vertex 11.290790225914929 -1.8700324853708297 1
      vertex 11.758926639489355 -1.9854177481961082 1
    endloop
  endfacet
  facet normal 0 0 1
    outer loop
      vertex 11.758926639489355 1.985417748196108 1
      vertex 11.758926639489355 -1.9854177481961082 1
      vertex 12.241073360510645 -1.9854177481961082 1
    endloop
  endfacet
  facet normal 0 0 1
    outer loop
      vertex 10.22908794869358 0.9294463440875367 1
      vertex 10.22908794869358 -0.9294463440875367 1
      vertex 10.502978503657799 -1.3262453164815906 1
    endloop
  endfacet
  facet normal 0 0 1
    outer loop
      vertex 10.058116365147896 0.47863132857511526 1
      vertex 10.058116365147896 -0.47863132857511526 1
      vertex 10.22908794869358 -0.9294463440875367 1
    endloop
  endfacet
  facet normal 0 0 1
    outer loop
      vertex 12.241073360510645 1.985417748196108 1
      vertex 12.241073360510645 -1.9854177481961082 1
      vertex 12.709209774085071 -1.8700324853708297 1
    endloop
  endfacet
  facet normal 0 0 1
    outer loop
      vertex 12.709209774085071 1.8700324853708297 1
      vertex 12.709209774085071 -1.8700324853708297 1
      vertex 13.136129493462313 -1.6459677317873123 1
    endloop
  endfacet
  facet normal 0 0 1
    outer loop
      vertex 13.136129493462311 1.645967731787313 1
      vertex 13.136129493462313 -1.6459677317873123 1
      vertex 13.497021496342201 -1.3262453164815906 1
    endloop
  endfacet
  facet normal 0 0 1
    outer loop
      vertex 13.497021496342203 1.3262453164815904 1
      vertex 13.497021496342201 -1.3262453164815906 1
      vertex 13.77091205130642 -0.9294463440875367 1
    endloop
  endfacet
  facet normal 0 0 1
    outer loop
      vertex 13.77091205130642 0.9294463440875371 1
      vertex 13.77091205130642 -0.9294463440875367 1
      vertex 13.941883634852104 -0.47863132857511625 1
    endloop
  endfacet
  facet normal 0 0 1
    outer loop
      vertex 13.941883634852104 0.47863132857511553 1
      vertex 13.941883634852104 -0.47863132857511625 1
      vertex 14 0 1
    endloop
  endfacet
  facet normal 0 0 -1
    outer loop
      vertex 10.058116365147896 0.47863132857511526 0
      vertex 10.058116365147896 -0.47863132857511526 0
      vertex 10 0 0
    endloop
  endfacet
  facet normal -0.9927088740980541 0.12053668025532319 0
    outer loop
      vertex 10 0 0
      vertex 10.058116365147896 0.47863132857511526 1
      vertex 10.058116365147896 0.47863132857511526 0
    endloop
  endfacet
  facet normal 0 0 -1
    outer loop
      vertex 10.058116365147896 -0.47863132857511526 0
      vertex 10.058116365147896 0.47863132857511526 0
      vertex 10.22908794869358 0.9294463440875367 0
    endloop
  endfacet
  facet normal 0 0 -1
    outer loop
      vertex 10.22908794869358 -0.9294463440875367 0
      vertex 10.22908794869358 0.9294463440875367 0
      vertex 10.502978503657799 1.3262453164815906 0
    endloop
  endfacet
  facet normal 0 0 -1
    outer loop
      vertex 10.502978503657799 -1.3262453164815906 0
      vertex 10.502978503657799 1.3262453164815906 0
      vertex 10.863870506537689 1.645967731787313 0
    endloop
  endfacet
  facet normal 0 0 -1
    outer loop
      vertex 10.863870506537689 -1.645967731787313 0
      vertex 10.863870506537689 1.645967731787313 0
      vertex 11.290790225914929 1.8700324853708297 0
    endloop
  endfacet
  facet normal 0 0 -1
    outer loop
      vertex 11.290790225914929 -1.8700324853708297 0
      vertex 11.290790225914929 1.8700324853708297 0
      vertex 11.758926639489355 1.985417748196108 0
    endloop
  endfacet
  facet normal 0 0 -1
    outer loop
      vertex 11.758926639489355 -1.9854177481961082 0
      vertex 11.758926639489355 1.985417748196108 0
      vertex 12.241073360510645 1.985417748196108 0
    endloop
  endfacet
  facet normal 0 0 -1
    outer loop
      vertex 13.77091205130642 -0.9294463440875367 0
      vertex 13.77091205130642 0.9294463440875371 0
      vertex 13.941883634852104 0.47863132857511553 0
    endloop
  endfacet
  facet normal 0 0 -1
    outer loop
      vertex 13.136129493462313 -1.6459677317873123 0
      vertex 13.136129493462311 1.645967731787313 0
      vertex 13.497021496342203 1.3262453164815904 0
    endloop
  endfacet
  facet normal 0 0 -1
    outer loop
      vertex 13.497021496342201 -1.3262453164815906 0
      vertex 13.497021496342203 1.3262453164815904 0
      vertex 13.77091205130642 0.9294463440875371 0
    endloop
  endfacet
  facet normal 0 0 -1
    outer loop
      vertex 12.241073360510645 -1.9854177481961082 0
      vertex 12.241073360510645 1.985417748196108 0
      vertex 12.709209774085071 1.8700324853708297 0
    endloop
  endfacet
  facet normal 0 0 -1
    outer loop
      vertex 12.709209774085071 -1.8700324853708297 0
      vertex 12.709209774085071 1.8700324853708297 0
      vertex 13.136129493462311 1.645967731787313 0
    endloop
  endfacet
  facet normal -0.9350162426854146 0.35460488704253595 0
    outer loop
      vertex 10.058116365147896 0.47863132857511526 0
      vertex 10.22908794869358 0.9294463440875367 1
      vertex 10.22908794869358 0.9294463440875367 0
    endloop
  endfacet
  facet normal 0.992708874098054 0.1205366802553231 0
    outer loop
      vertex 13.941883634852104 0.47863132857511553 0
      vertex 14 0 1
      vertex 14 0 0
    endloop
  endfacet
  facet normal 0.9350162426854147 0.3546048870425359 0
    outer loop
      vertex 13.77091205130642 0.9294463440875371 0
      vertex 13.941883634852104 0.47863132857511553 1
      vertex 13.941883634852104 0.47863132857511553 0
    endloop
  endfacet
  facet normal -0.8229838658936561 0.5680647467311563 0
    outer loop
      vertex 10.22908794869358 0.9294463440875367 0
      vertex 10.502978503657799 1.3262453164815906 1
      vertex 10.502978503657799 1.3262453164815906 0
    endloop
  endfacet
  facet normal -0.6631226582407959 0.7485107481711005 0
    outer loop
      vertex 10.502978503657799 1.3262453164815906 1
      vertex 10.863870506537689 1.645967731787313 0
      vertex 10.502978503657799 1.3262453164815906 0
    endloop
  endfacet
  facet normal -0.46472317204376845 0.88545602565321 0
    outer loop
      vertex 10.863870506537689 1.645967731787313 1
      vertex 11.290790225914929 1.8700324853708297 0
      vertex 10.863870506537689 1.645967731787313 0
    endloop
  endfacet
  facet normal -0.23931566428755738 0.9709418174260521 0
    outer loop
      vertex 11.290790225914929 1.8700324853708297 1
      vertex 11.758926639489355 1.985417748196108 0
      vertex 11.290790225914929 1.8700324853708297 0
    endloop
  endfacet
  facet normal 0 1 0
    outer loop
      vertex 11.758926639489355 1.985417748196108 1
      vertex 12.241073360510645 1.985417748196108 0
      vertex 11.758926639489355 1.985417748196108 0
    endloop
  endfacet
  facet normal 0.8229838658936574 0.5680647467311544 0
    outer loop
      vertex 13.497021496342203 1.3262453164815904 0
      vertex 13.77091205130642 0.9294463440875371 1
      vertex 13.77091205130642 0.9294463440875371 0
    endloop
  endfacet
  facet normal 0.23931566428755738 0.9709418174260521 0
    outer loop
      vertex 12.241073360510645 1.985417748196108 1
      vertex 12.709209774085071 1.8700324853708297 0
      vertex 12.241073360510645 1.985417748196108 0
    endloop
  endfacet
  facet normal 0.46472317204376845 0.88545602565321 0
    outer loop
      vertex 12.709209774085071 1.8700324853708297 1
      vertex 13.136129493462311 1.645967731787313 0
      vertex 12.709209774085071 1.8700324853708297 0
    endloop
  endfacet
  facet normal 0.6631226582407943 0.748510748171102 0
    outer loop
      vertex 13.136129493462311 1.645967731787313 1
      vertex 13.497021496342203 1.3262453164815904 0
      vertex 13.136129493462311 1.645967731787313 0
    endloop
  endfacet
  facet normal -0.9927088740980541 0.12053668025532319 0
    outer loop
      vertex 10.058116365147896 0.47863132857511526 1
      vertex 10 0 0
      vertex 10 0 1
    endloop
  endfacet
  facet normal 0 0 1
    outer loop
      vertex 10.058116365147896 -0.47863132857511526 1
      vertex 10.058116365147896 0.47863132857511526 1
      vertex 10 0 1
    endloop
  endfacet
  facet normal -0.9350162426854146 0.35460488704253595 0
    outer loop
      vertex 10.22908794869358 0.9294463440875367 1
      vertex 10.058116365147896 0.47863132857511526 0
      vertex 10.058116365147896 0.47863132857511526 1
    endloop
  endfacet
  facet normal 0.992708874098054 0.1205366802553231 0
    outer loop
      vertex 14 0 1
      vertex 13.941883634852104 0.47863132857511553 0
      vertex 13.941883634852104 0.47863132857511553 1
    endloop
  endfacet
  facet normal 0.9350162426854147 0.3546048870425359 0
    outer loop
      vertex 13.941883634852104 0.47863132857511553 1
      vertex 13.77091205130642 0.9294463440875371 0
      vertex 13.77091205130642 0.9294463440875371 1
    endloop
  endfacet
  facet normal 0 0 1
    outer loop
      vertex 10.058116365147896 0.47863132857511526 1
      vertex 10.22908794869358 -0.9294463440875367 1
      vertex 10.22908794869358 0.9294463440875367 1
    endloop
  endfacet
  facet normal 0 0 1
    outer loop
      vertex 10.22908794869358 0.9294463440875367 1
      vertex 10.502978503657799 -1.3262453164815906 1
      vertex 10.502978503657799 1.3262453164815906 1
    endloop
  endfacet
  facet normal 0 0 1
    outer loop
      vertex 10.502978503657799 1.3262453164815906 1
      vertex 10.863870506537689 -1.645967731787313 1
      vertex 10.863870506537689 1.645967731787313 1
    endloop
  endfacet
  facet normal 0 0 1
    outer loop
      vertex 10.863870506537689 1.645967731787313 1
      vertex 11.290790225914929 -1.8700324853708297 1
      vertex 11.290790225914929 1.8700324853708297 1
    endloop
  endfacet
  facet normal 0 0 1
    outer loop
      vertex 11.290790225914929 1.8700324853708297 1
      vertex 11.758926639489355 -1.9854177481961082 1
      vertex 11.758926639489355 1.985417748196108 1
    endloop
  endfacet
  facet normal 0 0 1
    outer loop
      vertex 13.77091205130642 0.9294463440875371 1
      vertex 13.941883634852104 -0.47863132857511625 1
      vertex 13.941883634852104 0.47863132857511553 1
    endloop
  endfacet
  facet normal 0 0 1
    outer loop
      vertex 13.497021496342203 1.3262453164815904 1
      vertex 13.77091205130642 -0.9294463440875367 1
      vertex 13.77091205130642 0.9294463440875371 1
    endloop
  endfacet
  facet normal 0 0 1
    outer loop
      vertex 11.758926639489355 1.985417748196108 1
      vertex 12.241073360510645 -1.9854177481961082 1
      vertex 12.241073360510645 1.985417748196108 1
    endloop
  endfacet
  facet normal 0 0 1
    outer loop
      vertex 12.241073360510645 1.985417748196108 1
      vertex 12.709209774085071 -1.8700324853708297 1
      vertex 12.709209774085071 1.8700324853708297 1
    endloop
  endfacet
  facet normal 0 0 1
    outer loop
      vertex 12.709209774085071 1.8700324853708297 1
      vertex 13.136129493462313 -1.6459677317873123 1
      vertex 13.136129493462311 1.645967731787313 1
    endloop
  endfacet
  facet normal 0 0 1
    outer loop
      vertex 13.136129493462311 1.645967731787313 1
      vertex 13.497021496342201 -1.3262453164815906 1
      vertex 13.497021496342203 1.3262453164815904 1
    endloop
  endfacet
  facet normal -0.8229838658936561 0.5680647467311563 0
    outer loop
      vertex 10.502978503657799 1.3262453164815906 1
      vertex 10.22908794869358 0.9294463440875367 0
      vertex 10.22908794869358 0.9294463440875367 1
    endloop
  endfacet
  facet normal -0.6631226582407959 0.7485107481711005 0
    outer loop
      vertex 10.863870506537689 1.645967731787313 0
      vertex 10.502978503657799 1.3262453164815906 1
      vertex 10.863870506537689 1.645967731787313 1
    endloop
  endfacet
  facet normal -0.46472317204376845 0.88545602565321 0
    outer loop
      vertex 11.290790225914929 1.8700324853708297 0
      vertex 10.863870506537689 1.645967731787313 1
      vertex 11.290790225914929 1.8700324853708297 1
    endloop
  endfacet
  facet normal -0.23931566428755738 0.9709418174260521 0
    outer loop
      vertex 11.758926639489355 1.985417748196108 0
      vertex 11.290790225914929 1.8700324853708297 1
      vertex 11.758926639489355 1.985417748196108 1
    endloop
  endfacet
  facet normal 0.8229838658936574 0.5680647467311544 0
    outer loop
      vertex 13.77091205130642 0.9294463440875371 1
      vertex 13.497021496342203 1.3262453164815904 0
      vertex 13.497021496342203 1.3262453164815904 1
    endloop
  endfacet
  facet normal 0.6631226582407943 0.748510748171102 0
    outer loop
      vertex 13.497021496342203 1.3262453164815904 0
      vertex 13.136129493462311 1.645967731787313 1
      vertex 13.497021496342203 1.3262453164815904 1
    endloop
  endfacet
  facet normal 0.46472317204376845 0.88545602565321 0
    outer loop
      vertex 13.136129493462311 1.645967731787313 0
      vertex 12.709209774085071 1.8700324853708297 1
      vertex 13.136129493462311 1.645967731787313 1
    endloop
  endfacet
  facet normal 0 1 0
    outer loop
      vertex 12.241073360510645 1.985417748196108 0
      vertex 11.758926639489355 1.985417748196108 1
      vertex 12.241073360510645 1.985417748196108 1
    endloop
  endfacet
  facet normal 0.23931566428755738 0.9709418174260521 0
    outer loop
      vertex 12.709209774085071 1.8700324853708297 0
      vertex 12.241073360510645 1.985417748196108 1
      vertex 12.709209774085071 1.8700324853708297 1
    endloop
  endfacet
endsolid OpenSCAD_Model
