solid OpenSCAD_Model
  facet normal 0 0 -1
    outer loop
      vertex 0 0 1
      vertex 0 10 1
      vertex 3 3 1
    endloop
  endfacet
  facet normal 0 0 -1
    outer loop
      vertex 0 0 1
      vertex 3 3 1
      vertex 7 3 1
    endloop
  endfacet
  facet normal -1 0 0
    outer loop
      vertex 0 0 1
      vertex 0 0 11
      vertex 0 10 11
    endloop
  endfacet
  facet normal 0 0 1
    outer loop
      vertex 0 0 11
      vertex 3 3 11
      vertex 0 10 11
    endloop
  endfacet
  facet normal 0 -1 0
    outer loop
      vertex 0 0 1
      vertex 10 0 11
      vertex 0 0 11
    endloop
  endfacet
  facet normal 0 0 1
    outer loop
      vertex 0 0 11
      vertex 10 0 11
      vertex 3 3 11
    endloop
  endfacet
  facet normal 0 0 -1
    outer loop
      vertex 0 10 1
      vertex 3 7 1
      vertex 3 3 1
    endloop
  endfacet
  facet normal -1 0 0
    outer loop
      vertex 0 0 1
      vertex 0 10 11
      vertex 0 10 1
    endloop
  endfacet
  facet normal 0 0 -1
    outer loop
      vertex 0 10 1
      vertex 10 10 1
      vertex 3 7 1
    endloop
  endfacet
  facet normal 0 1 0
    outer loop
      vertex 0 10 1
      vertex 0 10 11
      vertex 10 10 1
    endloop
  endfacet
  facet normal 0 0 1
    outer loop
      vertex 0 10 11
      vertex 3 3 11
      vertex 3 7 11
    endloop
  endfacet
  facet normal 0 0 1
    outer loop
      vertex 0 10 11
      vertex 3 7 11
      vertex 7 7 11
    endloop
  endfacet
  facet normal 0 0 -1
    outer loop
      vertex 0 0 1
      vertex 7 3 1
      vertex 10 0 1
    endloop
  endfacet
  facet normal 0 -1 0
    outer loop
      vertex 0 0 1
      vertex 10 0 1
      vertex 10 0 11
    endloop
  endfacet
  facet normal 0 0 -1
    outer loop
      vertex 10 0 1
      vertex 7 3 1
      vertex 10 10 1
    endloop
  endfacet
  facet normal 1 0 0
    outer loop
      vertex 10 0 1
      vertex 10 10 1
      vertex 10 0 11
    endloop
  endfacet
  facet normal 0 0 1
    outer loop
      vertex 10 0 11
      vertex 7 3 11
      vertex 3 3 11
    endloop
  endfacet
  facet normal 0 0 1
    outer loop
      vertex 10 0 11
      vertex 7 7 11
      vertex 7 3 11
    endloop
  endfacet
  facet normal 0 0 -1
    outer loop
      vertex 10 10 1
      vertex 7 7 1
      vertex 3 7 1
    endloop
  endfacet
  facet normal 0 0 -1
    outer loop
      vertex 10 10 1
      vertex 7 3 1
      vertex 7 7 1
    endloop
  endfacet
  facet normal 0 1 0
    outer loop
      vertex 0 10 11
      vertex 10 10 11
      vertex 10 10 1
    endloop
  endfacet
  facet normal 0 0 1
    outer loop
      vertex 0 10 11
      vertex 7 7 11
      vertex 10 10 11
    endloop
  endfacet
  facet normal 1 0 0
    outer loop
      vertex 10 0 11
      vertex 10 10 1
      vertex 10 10 11
    endloop
  endfacet
  facet normal 0 0 1
    outer loop
      vertex 10 0 11
      vertex 10 10 11
      vertex 7 7 11
    endloop
  endfacet
  facet normal 0 1 0
    outer loop
      vertex 3 3 11
      vertex 7 3 1
      vertex 3 3 1
    endloop
  endfacet
  facet normal 1 0 0
    outer loop
      vertex 3 3 11
      vertex 3 3 1
      vertex 3 7 11
    endloop
  endfacet
  facet normal 1 0 0
    outer loop
      vertex 3 7 11
      vertex 3 3 1
      vertex 3 7 1
    endloop
  endfacet
  facet normal 0 -1 0
    outer loop
      vertex 7 7 11
      vertex 3 7 11
      vertex 3 7 1
    endloop
  endfacet
  facet normal -1 0 0
    outer loop
      vertex 7 3 1
      vertex 7 3 11
      vertex 7 7 1
    endloop
  endfacet
  facet normal 0 1 0
    outer loop
      vertex 3 3 11
      vertex 7 3 11
      vertex 7 3 1
    endloop
  endfacet
  facet normal 0 -1 0
    outer loop
      vertex 3 7 1
      vertex 7 7 1
      vertex 7 7 11
    endloop
  endfacet
  facet normal -1 0 0
    outer loop
      vertex 7 7 1
      vertex 7 3 11
      vertex 7 7 11
    endloop
  endfacet
endsolid OpenSCAD_Model
